# xmcd CD database file
# Copyright (C) 1993-1997  Ti Kan
#
# Track frame offsets:
#	182
#	6002
#	30617
#	59035
#	79885
#	112175
#	128017
#	158620
#	188097
#	212357
#
# Disc length: 2998 seconds
#
# Revision: 1
# Processed by: cddbd v1.4b41PL1 Copyright (c) Steve Scherf et al.
# Submitted via: xmcd 2.1 PL2
#
DISCID=7d0bb40a
DTITLE=Toufic Farroukh - Ali on Broadway
DYEAR=1900
DGENRE=
TTITLE0=Like Desire (Intro)
TTITLE1=Like Desire
TTITLE2=Another day
TTITLE3=For once
TTITLE4=Streets and faces (for S. Farroukh)
TTITLE5=Hand Made
TTITLE6=Tagada dance
TTITLE7=Open the door
TTITLE8=549 blues (for the great autor A. R. Mounif)
TTITLE9=549 blues (part II)
EXTD=Toufic Farroukh\nAli on Broadway\n\n1. Like Desire (Intro]\n2. Like 
EXTD=Desire\n3. Another day\n4. For once\n5. Streets and faces (for S. F
EXTD=arroukh]\n6. Hand Made\n7. Tagada dance\n8. Open the door\n9. 549 bl
EXTD=ues (for the great autor A. R. Mounif]\n10. 549 blues (part II]\n\n
EXTD=Compositions and arrangements: Toufic Farroukh\nFrangois Dulac and 
EXTD=Toufic Farroukh: music charts (3, 4, 5 and 8]\n\nTouffic Farroukh: s
EXTD=axes, percussion\nFlorence Melnotte: acoustic piano\nMishko: fretl
EXTD=ess and 6 strings bass guitars\nEtienne Bracher: drums\nCharbel Rouh
EXTD=ana: oud\nSamir Siblini: ney flute\nNouhad Akiki: kanoun\nNicolas G
EXTD=enest: trumpet, flugelhorn\nIbrahim Jaber: djambi, congas, percus
EXTD=sion\nAli Khatib: req\nTony Dib: accordeon\nVahaghen Hayrabadian: a
EXTD=coustic piano (9 &10]\nYves Abadie: drums (4 and 7]\nNguyen Le: elec
EXTD=tric guitar (2 and 6]\nMaurice Khourie: electric guitar (8]\nAntoine
EXTD=Khalife: violin (3]\nImane Homsi: kanoun (2]\nCecile Daroux: flut
EXTD=e, alto flute, piccolo (6]\nJ.F. Bert: clarinet, bass clarinet (6
EXTD=]\nMr. Ziad Rahbani: strings synthesizer (1 and 2]\n\nproduced by Tou
EXTD=fic Farroukh  \nco-producer: Radwan Hoteit\n\ncopyright 1994 Skydog
EXTD=SCPP
EXTT0=
EXTT1=
EXTT2=
EXTT3=
EXTT4=
EXTT5=
EXTT6=
EXTT7=
EXTT8=
EXTT9=
PLAYORDER=
